<svg width="116" height="124" viewBox="0 0 116 124" fill="none" xmlns="http://www.w3.org/2000/svg">
<path d="M102.5 68C102.5 80.4264 92.4264 90.5 80 90.5C67.5736 90.5 57.5 80.4264 57.5 68C57.5 55.5736 67.5736 45.5 80 45.5C92.4264 45.5 102.5 55.5736 102.5 68Z" stroke="#B90001" stroke-opacity="0.64" stroke-width="5"/>
<path d="M77.5 68C77.5 80.4264 67.4264 90.5 55 90.5C42.5736 90.5 32.5 80.4264 32.5 68C32.5 55.5736 42.5736 45.5 55 45.5C67.4264 45.5 77.5 55.5736 77.5 68Z" stroke="#B90001" stroke-opacity="0.64" stroke-width="5"/>
<path d="M88.5 25C88.5 37.4264 78.4264 47.5 66 47.5C53.5736 47.5 43.5 37.4264 43.5 25C43.5 12.5736 53.5736 2.5 66 2.5C78.4264 2.5 88.5 12.5736 88.5 25Z" stroke="#B90001" stroke-opacity="0.64" stroke-width="5"/>
<path d="M113.5 43C113.5 55.4264 103.426 65.5 91 65.5C78.5736 65.5 68.5 55.4264 68.5 43C68.5 30.5736 78.5736 20.5 91 20.5C103.426 20.5 113.5 30.5736 113.5 43Z" stroke="#B90001" stroke-opacity="0.64" stroke-width="5"/>
<path d="M63.5 43C63.5 55.4264 53.4264 65.5 41 65.5C28.5736 65.5 18.5 55.4264 18.5 43C18.5 30.5736 28.5736 20.5 41 20.5C53.4264 20.5 63.5 30.5736 63.5 43Z" stroke="#B90001" stroke-opacity="0.64" stroke-width="5"/>
<path d="M73.5 50C73.5 54.1421 70.1421 57.5 66 57.5C61.8579 57.5 58.5 54.1421 58.5 50C58.5 45.8579 61.8579 42.5 66 42.5C70.1421 42.5 73.5 45.8579 73.5 50Z" stroke="#F4EDCC" stroke-opacity="0.67" stroke-width="5"/>
<path d="M50.9 108.8C50.9 115.704 45.3036 121.3 38.4 121.3C31.4965 121.3 25.9 115.704 25.9 108.8C25.9 101.896 31.4965 96.3 38.4 96.3C45.3036 96.3 50.9 101.896 50.9 108.8Z" stroke="#CBC943" stroke-opacity="0.7" stroke-width="5"/>
<path d="M35.9 108.8C35.9 115.704 30.3036 121.3 23.4 121.3C16.4965 121.3 10.9 115.704 10.9 108.8C10.9 101.896 16.4965 96.3 23.4 96.3C30.3036 96.3 35.9 101.896 35.9 108.8Z" stroke="#CBC943" stroke-opacity="0.7" stroke-width="5"/>
<path d="M42.5 83C42.5 89.9036 36.9036 95.5 30 95.5C23.0964 95.5 17.5 89.9036 17.5 83C17.5 76.0964 23.0964 70.5 30 70.5C36.9036 70.5 42.5 76.0964 42.5 83Z" stroke="#CBC943" stroke-opacity="0.7" stroke-width="5"/>
<path d="M57.5 93.8C57.5 100.704 51.9036 106.3 45 106.3C38.0964 106.3 32.5 100.704 32.5 93.8C32.5 86.8964 38.0964 81.3 45 81.3C51.9036 81.3 57.5 86.8964 57.5 93.8Z" stroke="#CBC943" stroke-opacity="0.7" stroke-width="5"/>
<path d="M27.5 93.8C27.5 100.704 21.9036 106.3 15 106.3C8.09644 106.3 2.5 100.704 2.5 93.8C2.5 86.8964 8.09644 81.3 15 81.3C21.9036 81.3 27.5 86.8964 27.5 93.8Z" stroke="#CBC943" stroke-opacity="0.7" stroke-width="5"/>
<path d="M33.5 98C33.5 99.933 31.933 101.5 30 101.5C28.067 101.5 26.5 99.933 26.5 98C26.5 96.067 28.067 94.5 30 94.5C31.933 94.5 33.5 96.067 33.5 98Z" stroke="#F4EDCC" stroke-opacity="0.6" stroke-width="5"/>
</svg>
